<svg id="Layer_1" data-name="Layer 1" xmlns="http://www.w3.org/2000/svg" viewBox="0 0 1749.75 469.03"><defs><style>.cls-1,.cls-2{fill:none;}.cls-1,.cls-3,.cls-4,.cls-5{stroke:#000;stroke-linecap:round;stroke-linejoin:round;}.cls-1{stroke-width:7px;}.cls-2{stroke:#fff;stroke-miterlimit:10;stroke-width:10px;}.cls-3{stroke-width:5px;}.cls-4{stroke-width:3px;}.cls-5{stroke-width:4px;}</style></defs><title>logo</title><path d="M63.69,323.34c-3.25,6.75-11.25-4-6.75-12.25,11.5-21.5,26.25-42.25,50-81,26.5-43,33.25-74.5,25-84.75-6-7.5-31.25-7-52.5,4-31.5,16.25-46,24-49.5,34.5-3.25,9.75-2.25,10.5-13.25,22.25-8.25,8.75-13.75,14.5-16.5,0-1-5,2-11.5,5.5-14.75,6.5-6.5,32.5-29,71.5-46,26.25-11.5,51.75-15.75,60.75-5.75,13.25,14.75,8.75,47-22.5,94.5-2,3.25.5,2.25,2,.75a727.51,727.51,0,0,1,53.75-56.5c30-28.25,55.25-49.25,73.75-43.5,26.75,8.25-18.5,85.25-35,113.75-.75,1.25.25,3,2,.75,5.75-7.75,16.75-23.25,44.5-53.25,36.5-39.5,60.5-55.25,75.25-45.25,17.5,12,3,42.75-26.5,91.75-29.25,49-52.25,95.75-28.5,114.75,10.25,8.25,26.5,6.75,26.5,6.75s.75-3.75,6.75-5.75c12-4,13.5,1.25,10.75,3.75-5,4.5-9.75,7.25-17.5,7.25s-20.75-1-30.5-8.75c-28-22.5-8.75-72.25,21-122.25,30-50,35.75-73.75,27.75-78.5-12.75-7.5-30.75,5.75-62.25,39.5-14.5,15.5-31.25,34.5-44.25,53-17.75,25.25-31.25,50.5-40,67.5-4.25,8.25-11-3.5-8-9,13.25-24.5,23.25-40.75,37.25-65.75,14.25-25,47-92.5,33.25-99.25-12-6-30.75,3.75-64.5,36.5-31,30-36.5,36.5-52.5,55C95.44,266.34,75.19,299.34,63.69,323.34Z"/><path d="M343.19,303.59c12.25,5.5,27,3,37.75-6,2.5-2.25,1.25-3.75,4-6,4-3.25,7-4.25,7.25-1.75s-4.75,6.75-11.5,11.5c-11.25,8-25.25,10.75-40,4.25-10.25,9.25-31,24-41.5,14.25-7.5-7-7.5-26.25,10.25-44,6.75-6.5,13-10.75,18.75-13.25,12-20,43-20.25,36,9.25C361.44,283.34,353.69,294.09,343.19,303.59Zm-5.5.25a31.3,31.3,0,0,1-13.5-27.75c-18,11.75-25.25,36.25-20.25,40.75C312.19,324.34,329.69,311.84,337.69,303.84Zm13-39c-7,0-14.75,2.5-24.25,9.5-1.25,10.75,4.5,21.75,13.5,27.5a67.23,67.23,0,0,0,17.25-30.75c4.25-18.75-12.75-25.25-25.25-9.75,8.5-2.5,15.5-1.25,20,.75C353.94,263.09,353.19,264.84,350.69,264.84Z"/><path d="M446.94,280.59c5.5-8.25,6-12.75,3.5-14.75-3.5-2.75-15.75,2.5-31.75,13.5s-32.5,26.75-41,40.5c-3.25,5-7.25-2.5-6.75-5.25.5-2.5,13-24,15.5-27.75s4.75-7.75,3.75-11.25c-1.5-5.5,2.75-9.5,7.75-15.75,3-3.75,5-5.25,9.25,4,1.25,2.5,0,5.5-.75,6.75-1.75,3-16,24-17.5,27-.5,1,0,1.5.75.75,3-3,12.5-11.25,26.5-21.5,15.75-11.5,36.25-23.5,43.75-18.5,11.5,7.5.5,20.5-5.25,28.25-8.25,11-21.75,26.5-14.75,31,4.25,2.75,16.5-.5,28.25-6,11.5-5.5,20-11.75,23.5-15,2.75-2.5,1.25-4.25,4-6.5,4-3.25,6-4,6.25-1.5s-3.5,6.25-9.75,11.25a109.53,109.53,0,0,1-23.25,14.5c-12.5,6-28,9.5-33.5,6.5C424.94,314.84,436.69,295.84,446.94,280.59Z"/><path d="M499.43,275.59c-1.5-5.5,2.75-9.5,7.75-15.75,3-3.75,5-5.25,9.25,4,1.25,2.5,1,5.5.25,6.75-1.25,2.5-8.5,12.75-11.5,17.25-3.25,5-17.75,25.5-11.75,30,4,3,15.75-.75,27.5-6.25,11.5-5.5,20-11.75,23.5-15,2.75-2.5,1.25-4.25,4-6.5,4-3.25,6-4,6.25-1.5s-3.5,6.25-9.75,11.25a109.53,109.53,0,0,1-23.25,14.5c-12.5,6-27.25,9.75-32.75,6.75-8.5-4.75-6.25-14.25,7.25-36C498.68,281.34,500.43,279.09,499.43,275.59Zm36.75-32.75c-3.75,7-8.25,9-12,4.25s-3-6.25,1.75-13.25c1.75-2.5,1.25-2.5,1.75-4.25.5-2,3.25-2.5,5-.25C534.18,231.59,538.43,238.09,536.18,242.84Z"/><path d="M566.68,392.09c12-13.25,17.25-16.75,22-19.5,6.75-4,7.25-2.25,7.75,1.25,1,7-6.5,13-13.25,15.75-5,2-6-1.75-12,3.75-16,14.5-31.75,40.25-36.75,52-3.25,7.5-9.5-3.25-8.5-6.75,4.5-16.5,11-39,28-73,22.5-45.25,35-61.5,44.25-73.75.75-1,0-1.5-.75-.75-12,11.25-45.75,37.5-56.75,29.25-13.25-10,4.5-36,22.25-48.5,27-19.25,56.75-19,65.25-1.5,1,1.75,1,4.5-1.5,5.5s-3.75-1.5-5.25-5c-5-12.25-23.75-14.75-50.5,6-18.75,14.5-31.75,35-25.25,40.25,7.5,6,38-16.5,49.75-28.25,11.25-11.25,14.5-17.5,15.75-19.5,1-1.75,2.25-3.75,4.25-.75,2.25,3.5,5,7.75,2.75,15.25-1.75,5.75-5,9-7.75,9.75-8.5,2.5-24.75,27-49.75,77.25a398.73,398.73,0,0,0-25,62.75C541.18,426.34,552.43,407.59,566.68,392.09Z"/><path d="M636.94,276.91c7-16.75,5.5-13,10-17.07,5.15-4.67,7.25-3.25,10.5,3.25,1.25,2.5,0,5.5-.75,6.75-1.75,3-14,23.25-17.25,28.25-5.5,8.25-6.75,14.5-4.25,16.25s11.25-.25,31.25-14.5c16.75-12,29-25.5,34.25-34.75,2-3.5,4.25-9,7-7.25,1.75,1.25,6.25,7.5,3.25,14-1.75,4-4.75,11.5-9,11.75-1.75,0-3.5,2.5-5.5,5.75-3.25,5-15.5,22.75-9.5,26.75,4.25,2.75,14.25.75,26-4.75,11.5-5.5,20-11.75,23.5-15,2.75-2.5,1.25-4.25,4-6.5,4-3.25,6-4,6.25-1.5s-3.5,6.25-9.75,11.25a109.53,109.53,0,0,1-23.25,14.5c-12.5,6-28,9.5-33.5,6.5-6.25-3.5-2.25-17.5,9-34.5.5-.75-.25-1.25-.75-.75-1.75,1.75-6.5,6.75-21,17.25-8.75,6.25-31,21.5-41.25,18.75-12.75-3.25,2.24-24.33,5.5-29.25C639.44,280.41,635.59,280.16,636.94,276.91Z"/><path d="M781.43,285.59c-12.5,6.5-27.75,7.75-33.5,5.75-6.25,8-8.75,20.75-2.5,24.25,14.5,8.25,55.25-5.25,75.25-21.5,2.75-2.25,2-5,4.75-7.25,4-3.25,6.5-3.75,6.75-1.25s-5.25,7.75-12,12.5c-20.25,14.25-58.5,31-78,21.25-13.75-7-11.75-29,8.75-46.5,21-17.75,44-18,48.25-11.75C804.18,268.34,794.68,278.84,781.43,285.59Zm13.25-20.75c-3-5.25-16.75-2.5-35.75,14a54.74,54.74,0,0,0-9.25,9.75c6.25,1.75,19.5.5,29.75-5C787.68,279.09,797.43,269.59,794.68,264.84Z"/><path d="M1268.75,294.57c-20.25,55.5-118.5,89.5-157.5,73-44.5-18.75,4.5-65.75,53.75-87.75,30.5-13.5,59-22.25,83.75-26.5-17.75-18.25-53.75-26-76.5-25-13.75.5-5.25-7.5-1.25-10.25s14.75-2.5,28.75-4.5c37-5.25,89-28,94.25-57.25,2.5-14.25-10.75-28.75-75-25.75-62.5,3-120.5,22.75-129.25,30s-4.75,10.5-20,16-21,8.5-15.75-5.75c1.75-5,5.25-7.5,9.5-9.5,8.25-3.75,63.75-30,155.25-34,70.5-3,90.25,9.75,87.25,31.25-3.5,25-40.75,54-103.75,63-1.75.25-1.75,1.25,0,1.5,18,1.75,47,10,61.5,28.25a108.41,108.41,0,0,1,22.25-1.5c8.25.5,13,.75,14.25,3,1.25,2-1.5,3.25-6.75,3.25-3.5,0-3.25-2-7.25-2.5-4.25-.5-13.25,0-20,1.25C1272.75,264.82,1274.75,277.57,1268.75,294.57Zm-48.5-141c-5,7.25-13.5,13.75-18,13.75-11.5,0-32.25,24.25-55.25,55.75-22,30.25-40,70-49,94-2.5,6.75-12.5-3-9-11.25,9.25-21.5,29-54,52.5-85.25,25-33.25,53.75-65.25,72-80.25,2.75-2.25,6.5-5,8.75-1.75C1224.75,142.32,1225,146.57,1220.25,153.57ZM1114.5,363.82c36.25,15.5,125.25-26.5,142-72.25,5.25-14.25,2.25-25.75-5.25-35-25.5,3.75-55.5,12.75-84.75,26.5C1116.25,306.57,1078.25,348.32,1114.5,363.82Z"/><path d="M1332.5,298.32c12.25,5.5,27,3,37.75-6,2.5-2.25,1.25-3.75,4-6,4-3.25,7-4.25,7.25-1.75s-4.75,6.75-11.5,11.5c-11.25,8-25.25,10.75-40,4.25-10.25,9.25-31,24-41.5,14.25-7.5-7-7.5-26.25,10.25-44,6.75-6.5,13-10.75,18.75-13.25,12-20,43-20.25,36,9.25C1350.75,278.07,1343,288.82,1332.5,298.32Zm-5.5.25a31.3,31.3,0,0,1-13.5-27.75c-18,11.75-25.25,36.25-20.25,40.75C1301.5,319.07,1319,306.57,1327,298.57Zm13-39c-7,0-14.75,2.5-24.25,9.5-1.25,10.75,4.5,21.75,13.5,27.5a67.23,67.23,0,0,0,17.25-30.75c4.25-18.75-12.75-25.25-25.25-9.75,8.5-2.5,15.5-1.25,20,.75C1343.25,257.82,1342.5,259.57,1340,259.57Z"/><path d="M1367.49,314.57c-3.25,5-7.25-2.5-6.75-5.25.5-2.5,12.5-22.5,15-26.25s3.5-5.25,2.75-11,4.25-12,8.5-17.5,7.25-3.25,10.5,3.25c1.25,2.5,0,5.5-.75,6.75-1.75,3-15,24-16.75,26.75-.5.75.25,1,.75.5,2.5-2.25,11.75-12.25,25.5-25.25,9.75-9.25,18.75-14.5,25.25-14.5s9.75,4.25,9.5,12c-.25,6.25-6.5,19-9.5,12.25-3-7-2.75-10-.5-13,1.75-2.5,1.25-5.25-.75-6-3.75-1.25-12.75,2.25-22,11.5C1396.24,280.82,1379.74,295.82,1367.49,314.57Z"/><path d="M1497.24,286.07c-13,12.75-46.25,37.25-57.5,29-13.25-9.75,4.5-36,22.25-48.5,27-19.25,56-18.25,65.25-3.25,2.25,3.5,1,6.25-1.5,7.25s-3.75-1.5-5.25-5c-5-12.25-23.75-14.75-50.5,6-18.75,14.5-31.75,35-25.25,40.25,7.5,6,39.25-16.5,50.75-28.25s13.25-16.75,14-18.5c0,0,1.5-4.5,4.25-.75s4,10.25,2.25,15c-1,2.75-3.75,9.5-6.5,9-1.75-.25-9,15-19.75,35.75,29-9,45.25-20.5,51.75-25.5,2.75-2,2.25-7.75,5-10,4-3.25,7.25-6,8-1.5.5,2.5-5,10-11.5,14.75-6,4.25-22.25,16.5-55.25,26.25-8.5,16.25-19,35.5-30.5,54-28,44.25-76.25,82.25-103.5,57.5-19.25-17.5-3.75-50.75,24.5-72,28.75-21.75,51.5-29,100.5-40.25,8.75-17,14.75-31,19.5-40.25C1499,285.57,1498.24,285.07,1497.24,286.07Zm-20.5,44.75c-43.75,10.25-69.25,19.25-95.5,39-22.25,16.75-38.25,49.75-23.75,62.25,23,20,67-16.75,90.75-52.75A530.28,530.28,0,0,0,1476.74,330.82Z"/><path d="M1591,280.32c-12.5,6.5-27.75,7.75-33.5,5.75-6.25,8-8.75,20.75-2.5,24.25,14.5,8.25,55.25-5.25,75.25-21.5,2.75-2.25,2-5,4.75-7.25,4-3.25,6.5-3.75,6.75-1.25s-5.25,7.75-12,12.5c-20.25,14.25-58.5,31-78,21.25-13.75-7-11.75-29,8.75-46.5,21-17.75,44-18,48.25-11.75C1613.74,263.07,1604.24,273.57,1591,280.32Zm13.25-20.75c-3-5.25-16.75-2.5-35.75,14a54.74,54.74,0,0,0-9.25,9.75c6.25,1.75,19.5.5,29.75-5C1597.24,273.82,1607,264.32,1604.24,259.57Z"/><path d="M1694.74,275.32c5.5-8.25,6-12.75,3.5-14.75-3.5-2.75-15.75,2.5-31.75,13.5s-32.5,26.75-41,40.5c-3.25,5-7.25-2.5-6.75-5.25.5-2.5,13-24,15.5-27.75s4.75-7.75,3.75-11.25c-1.5-5.5,2.75-9.5,7.75-15.75,3-3.75,5-5.25,9.25,4,1.25,2.5,0,5.5-.75,6.75-1.75,3-16,24-17.5,27-.5,1,0,1.5.75.75,3-3,12.5-11.25,26.5-21.5,15.75-11.5,36.25-23.5,43.75-18.5,11.5,7.5.5,20.5-5.25,28.25-8.25,11-21.75,26.5-14.75,31,4.25,2.75,16.5-.5,28.25-6,11.5-5.5,20-11.75,23.5-15,2.75-2.5,1.25-4.25,4-6.5,4-3.25,6-4,6.25-1.5s-3.5,6.25-9.75,11.25a109.53,109.53,0,0,1-23.25,14.5c-12.5,6-28,9.5-33.5,6.5C1672.74,309.57,1684.49,290.57,1694.74,275.32Z"/><path class="cls-1" d="M1135.11,139.91c.6-68-79.61-68.27-107.88-72.17-4-.55-4.5-15-8-22.5-2.6-5.59-23.24-24.86-33.61-34.33a23.88,23.88,0,0,0-14.15-6.16C942.28,2.34,905.21,4,888.13,5a27.34,27.34,0,0,0-16.37,6.65l-20.69,18c-10.32,9.79-17.51,18.11-18.34,27.67a38.66,38.66,0,0,1-2.14,9.34,12.59,12.59,0,0,1-3.88,5.27C824.12,74,821,74.52,819,71.44c-.78-1.2-1.32-2.58-2-3.73a11.31,11.31,0,0,0-7.32-5.1c-35.89-7.3-68.38-2.64-81-.23a11.2,11.2,0,0,0-8.81,8.39,85.48,85.48,0,0,0-1.74,11.47c-.67,7-5.84,7.5-5.84,7.5-35,9-37.35,7.88-45,27-3.7,9.25-16.37,51.43-16.29,89.17.09,35,7.31,42.33-2.66,62.25-3.34,6.66-5.84,12.25-5.84,12.25"/><path class="cls-1" d="M829.28,284.16c-12-19.14-18.2-41.45-18.2-65.67A124.73,124.73,0,0,1,935.81,93.76c55,0,102.69,34.6,119.27,84"/><circle cx="935.28" cy="217.74" r="95.17"/><path class="cls-2" d="M872.77,163.44a83,83,0,0,1,27.59-20.79"/><path class="cls-2" d="M1018.08,217.74a82.8,82.8,0,0,1-82.8,82.8"/><path class="cls-3" d="M1045.94,157.74s3.67,10.58,15.83,7.2c17.17-4.78-3.57,9-3.57,9Z"/><path class="cls-4" d="M824.32,291.6s2.53-9.56-.16-15.25c-2.42-5.13,3.83,4.31,3.83,4.31Z"/><path class="cls-5" d="M654.16,267.58a1.91,1.91,0,0,0,1.78-1.2c3.47-11.32-1.24-16.71-3.41-38.08-.57-5.56-.82,21.9-8.29,37a1.47,1.47,0,0,0,1.44,2.28Z"/><path d="M331.24,405h16.11c12.24,0,19.89,7.92,19.89,18.27s-7.65,18.27-19.89,18.27H335.92V468h-4.68Zm16.2,32.22c8.82,0,14.94-5.67,14.94-13.95s-6.12-14-14.94-14H335.92v27.9Z"/><path d="M458.23,405h4.68v63h-4.68V437.8H422V468h-4.68V405H422v28.53h36.27Z"/><path d="M514.57,436.45c0-18.18,13.23-32.58,31.14-32.58s31.13,14.4,31.13,32.58S563.7,469,545.71,469,514.57,454.63,514.57,436.45Zm4.86,0c0,15.48,10.53,28,26.28,28s26.27-12.51,26.27-28-10.53-28-26.27-28S519.43,421,519.43,436.45Z"/><path d="M638.86,409.27h-19V405h42.66v4.32h-19V468h-4.68Z"/><path d="M705.55,436.45c0-18.18,13.23-32.58,31.14-32.58s31.14,14.4,31.14,32.58S754.69,469,736.69,469,705.55,454.63,705.55,436.45Zm4.86,0c0,15.48,10.53,28,26.28,28s26.28-12.51,26.28-28-10.53-28-26.28-28S710.41,421,710.41,436.45Z"/><path d="M849.55,434.83h21.78v25.74S862.6,469,846.58,469c-18.63,0-31.05-14.4-31.05-32.58s12.87-32.58,31.05-32.58c15.66,0,22.86,8.91,22.86,8.91l-3.33,3.15s-6-7.47-19.53-7.47c-15.48,0-26.19,12.33-26.19,28s10.17,28,26.19,28c13.5,0,20.16-5.94,20.16-5.94V439.24H849.55Z"/><path d="M924.43,405h15.21c13,0,20.43,7.47,20.43,17.82,0,13.59-11.88,17.1-16.29,17.55l18,27.63h-5.67l-17.64-27.36h-9.36V468h-4.68Zm15.48,31.14c9.45,0,15.3-5,15.3-13.32s-5.94-13.32-15.3-13.32h-10.8v26.64Z"/><path d="M1030.81,405H1036l25.11,63h-5l-7.2-18.36h-31l-7.2,18.36h-5Zm-11.07,40.32h27.36l-13.68-35.1Z"/><path d="M1109.92,405H1126c12.24,0,19.89,7.92,19.89,18.27s-7.65,18.27-19.89,18.27H1114.6V468h-4.68Zm16.2,32.22c8.82,0,14.94-5.67,14.94-13.95s-6.12-14-14.94-14H1114.6v27.9Z"/><path d="M1236.91,405h4.68v63h-4.68V437.8h-36.27V468H1196V405h4.68v28.53h36.27Z"/><path d="M1312.51,443.2,1290.73,405h5.4l18.81,33.48L1333.75,405H1339l-21.78,38.25V468h-4.68Z"/></svg>